<?xml version="1.0" encoding="utf-8"?>
<!-- Generator: Adobe Illustrator 15.0.0, SVG Export Plug-In . SVG Version: 6.00 Build 0)  -->
<!DOCTYPE svg PUBLIC "-//W3C//DTD SVG 1.1//EN" "http://www.w3.org/Graphics/SVG/1.1/DTD/svg11.dtd">
<svg version="1.1" xmlns="http://www.w3.org/2000/svg" xmlns:xlink="http://www.w3.org/1999/xlink" x="0px" y="0px" width="250px"
	 height="184px" viewBox="0 0 250 184" enable-background="new 0 0 250 184" xml:space="preserve">
<g id="Layer_1_xA0_Image_1_">
	<g>
		<g>
			<path fill-rule="evenodd" clip-rule="evenodd" fill="#5A68C9" d="M29,145c3.263-0.264,2.889,3.11,5,4
				c12.547-12.12,29.393-19.94,45-29c-4.023-16.594-5.696-32.329-9-48c-3.234-15.338-14.533-29.373-10-47
				c-2.796-4.537-4.068-10.599-7-15c2.841-1.982,10.99,7.535,16,10c-2.053,13.063,5.135,19.806,9,28
				c5.603,11.878,5.507,25.883,12,37c1.8,2.867,2.635,6.698,5,9c3.246,6.421,5.386,13.947,12,17c35.69-15.31,79.18-22.821,109-44
				c-0.883,5.463-10.782,10.542-11,20c7.395,4.605,18.53,5.47,25,11c2.247,3.087,4.913,5.753,8,8c2.865,6.135,6.598,11.402,8,19
				c0,5,0,10,0,15c-3.487,48.03-85.384,46.929-87-2c0-3.333,0-6.667,0-10c0.658-9.675,5.738-14.928,8-23
				c-13.242,3.325-25.132,7.534-36,14c-13.531,8.05-17.834,28.019-44,23c-3.475,2.112-16.894,10.186-7,13c9,0,18,0,27,0c3,0,6,0,9,0
				c3.025,2.308,10.314,0.353,15,1c-3.129,1.538-7.392,1.941-12,2c-6.016-1.664-18.984-1.664-25,0c-10.118,0.549-21.297,0.036-28,4
				c3.923,8.41,17.135,6.411,27,8c10.291,1.657,21.222,2.943,27,8c-11.182-4.484-26.957-4.377-43-4c-1.711-2.288-7.633-0.367-11-1
				c-24.646-3.807-47.406,0.495-63-12c-1.484-13.484,5.377-18.623,18-18C25.077,142.257,24.443,146.224,29,145z"/>
			<path fill-rule="evenodd" clip-rule="evenodd" fill="#272E58" d="M238,104c-0.951,1.529-7.529-5.049-6-6
				C234.423,99.577,236.423,101.577,238,104z"/>
			<path fill-rule="evenodd" clip-rule="evenodd" fill="#BABCCA" d="M157,127c0,3.667,0,7.333,0,11
				C155.343,136.6,155.343,128.4,157,127z"/>
			<path fill-rule="evenodd" clip-rule="evenodd" fill="#404982" d="M159,128c0,3.333,0,6.667,0,10
				C157.345,136.922,157.345,129.078,159,128z"/>
			<path fill-rule="evenodd" clip-rule="evenodd" fill="#7A7E98" d="M248,128c1.655,1.078,1.655,8.922,0,10
				C248,134.667,248,131.333,248,128z"/>
			<path fill-rule="evenodd" clip-rule="evenodd" fill="#BABCCA" d="M80,153c8.011-1.665,22.989-1.665,31,0
				C100.667,153,90.333,153,80,153z"/>
			<path fill-rule="evenodd" clip-rule="evenodd" fill="#404982" d="M80,155c6.681-1.665,20.319-1.665,27,0C98,155,89,155,80,155z"
				/>
			<path fill-rule="evenodd" clip-rule="evenodd" fill="#404982" d="M116,155c4.198,0.499,15.729-1.103,15,1
				C126.314,155.353,119.025,157.308,116,155z"/>
			<path fill-rule="evenodd" clip-rule="evenodd" fill="#404982" d="M94,158c6.016-1.664,18.984-1.664,25,0
				C110.667,158,102.333,158,94,158z"/>
			<path fill-rule="evenodd" clip-rule="evenodd" fill="#7A7E98" d="M93,160c4.018-2.315,12.32-0.347,18-1
				C106.982,161.315,98.68,159.347,93,160z"/>
			<path fill-rule="evenodd" clip-rule="evenodd" fill="#404982" d="M66,173c3.367,0.633,9.289-1.288,11,1
				C73.633,173.367,67.711,175.288,66,173z"/>
			<path fill-rule="evenodd" clip-rule="evenodd" fill="#BABCCA" d="M89,176c3.667,0,7.333,0,11,0C98.6,177.657,90.4,177.657,89,176
				z"/>
			<path fill-rule="evenodd" clip-rule="evenodd" fill="#FFFFFF" d="M250,0c0,61.334,0,122.666,0,184c-83.334,0-166.666,0-250,0
				C0,122.666,0,61.334,0,0C83.333,0,166.666,0,250,0z M25,142c-13.635-3.295-26.831,2.498-24,19c19.108,17.045,54.051,10.641,88,15
				c1.4,1.657,9.6,1.657,11,0c9.435-0.757,17.023,5.629,24,4c-1.212,0.306-3.448-2.889-1-3c4.364,0.215,8.294,2.156,11-1
				c-15.585-2.045-27.261-5.886-41-8c-8.521-1.312-18.81-0.03-25-6c8.518-0.481,15.72-2.28,25-2c5.68-0.653,13.982,1.315,18-1
				c6.23-0.563,10.536,0.797,15,2c-0.355-4.196,9.534-0.141,10-7c-1,0-2,0-3,0c-4.019-2.315-12.32-0.347-18-1c-1.333,0-2.667,0-4,0
				c-8.011-1.665-22.989-1.665-31,0c-0.776-0.224-1.973-0.027-2-1c3.423-2.577,5.542-6.459,10-8c26.743,3.652,32.052-15.655,46-24
				c9.704-5.806,19.065-8.09,31-14c-3.244,6.422-6.542,12.792-8,21c-1.657,1.4-1.657,9.6,0,11c1.404,51.954,89.875,52.898,91,0
				c1.655-1.078,1.655-8.922,0-10c0-1,0-2,0-3c-0.156-1.177,0.172-2.839-1-3c-0.996-7.338-4.598-12.069-8-17
				c-0.057-0.61-0.149-1.184-1-1c-1.577-2.423-3.577-4.423-6-6c-0.057-0.61-0.149-1.184-1-1c-5.66-6.007-16.159-7.174-24-11
				c1.24-10.093,11.595-11.072,12-22c-29.299,19.035-74.966,30.367-112,45c-5.182-4.151-7.777-10.89-11-17
				c-1.479-2.188-1.95-5.383-4-7c-3.751-8.797-6.307-17.215-9-26c-4.459-14.548-12.448-23.381-13-41C60.818,14.182,56.91,5.09,48,1
				c2.719,8.614,6.413,16.253,10,24c-4.526,17.649,6.689,31.76,10,47c3.335,15.352,4.708,30.954,9,47c-2.2,5.15-9.243,4.33-15,7
				c-10.77,4.995-25.043,22.077-29,19c-0.331-0.258,0.061-1.454-1-1C29.593,141.559,26.686,143.42,25,142z"/>
			<path fill-rule="evenodd" clip-rule="evenodd" fill="#272E58" d="M32,144c1.061-0.454,0.669,0.742,1,1
				c3.957,3.077,18.23-14.005,29-19c5.757-2.67,12.8-1.85,15-7c-4.292-16.046-5.665-31.648-9-47c-3.311-15.24-14.526-29.351-10-47
				c-3.587-7.747-7.281-15.386-10-24c8.91,4.09,12.818,13.182,22,17c0.552,17.619,8.541,26.452,13,41c2.693,8.785,5.249,17.203,9,26
				c-0.211,1.208-1.11,0.615-2,0c-6.493-11.117-6.397-25.122-12-37c-3.865-8.194-11.053-14.937-9-28
				c-5.01-2.465-13.159-11.982-16-10c2.932,4.401,4.204,10.463,7,15c-4.533,17.627,6.766,31.662,10,47
				c3.304,15.671,4.977,31.406,9,48c-15.607,9.06-32.453,16.88-45,29c-2.111-0.89-1.737-4.264-5-4
				C29.162,143.828,30.823,144.156,32,144z"/>
			<path fill-rule="evenodd" clip-rule="evenodd" fill="#404982" d="M90,85c0.89,0.615,1.789,1.208,2,0c2.05,1.617,2.521,4.812,4,7
				c-0.779,0.221-1.163,0.838-1,2C92.635,91.698,91.8,87.867,90,85z"/>
			<path fill-rule="evenodd" clip-rule="evenodd" fill="#404982" d="M230,98c0.851,0.184,0.943-0.39,1-1c0.851-0.184,0.943,0.39,1,1
				c-1.529,0.951,5.049,7.529,6,6c0.851-0.184,0.943,0.39,1,1c-0.61,0.057-1.184,0.149-1,1C234.913,103.753,232.247,101.087,230,98z
				"/>
			<path fill-rule="evenodd" clip-rule="evenodd" fill="#272E58" d="M246,125c-1.402-7.598-5.135-12.865-8-19
				c-0.184-0.851,0.39-0.943,1-1c3.402,4.931,7.004,9.662,8,17C246.844,123.177,247.172,124.839,246,125z"/>
			<path fill-rule="evenodd" clip-rule="evenodd" fill="#404982" d="M21,143c0.272-3.507,4.428,1.807,4-1
				c1.686,1.42,4.593-0.441,7,2c-1.177,0.156-2.838-0.172-3,1C24.443,146.224,25.077,142.257,21,143z"/>
			<path fill-rule="evenodd" clip-rule="evenodd" fill="#272E58" d="M96,92c3.223,6.11,5.818,12.849,11,17
				c37.034-14.633,82.701-25.965,112-45c-0.405,10.928-10.76,11.907-12,22c7.841,3.826,18.34,4.993,24,11
				c-0.057,0.61-0.149,1.184-1,1c-6.47-5.53-17.605-6.395-25-11c0.218-9.458,10.117-14.537,11-20c-29.82,21.179-73.31,28.69-109,44
				c-6.614-3.053-8.754-10.579-12-17C94.837,92.838,95.221,92.221,96,92z"/>
			<path fill-rule="evenodd" clip-rule="evenodd" fill="#272E58" d="M80,155c-9.894-2.814,3.525-10.888,7-13
				c26.166,5.019,30.469-14.95,44-23c10.868-6.466,22.758-10.675,36-14c-2.262,8.072-7.342,13.325-8,23
				c-1.655,1.078-1.655,8.922,0,10c1.616,48.929,83.513,50.03,87,2c2.96-2.706-0.96-12.294,2-15c0,1,0,2,0,3c0,3.333,0,6.667,0,10
				c-1.125,52.898-89.596,51.954-91,0c0-3.667,0-7.333,0-11c1.458-8.208,4.756-14.578,8-21c-11.935,5.91-21.296,8.194-31,14
				c-13.948,8.345-19.257,27.652-46,24c-4.458,1.541-6.577,5.423-10,8c0.027,0.973,1.224,0.776,2,1c10.333,0,20.667,0,31,0
				c1.333,0,2.667,0,4,0c4.018,2.315,12.319,0.347,18,1c1,0,2,0,3,0c-0.466,6.859-10.355,2.804-10,7c-4.464-1.203-8.77-2.563-15-2
				c-5.68,0.653-13.982-1.315-18,1c-9.28-0.28-16.482,1.519-25,2c6.19,5.97,16.479,4.688,25,6c13.739,2.114,25.415,5.955,41,8
				c-2.706,3.156-6.636,1.215-11,1c-2.448,0.111-0.212,3.306,1,3c-6.977,1.629-14.565-4.757-24-4c-3.667,0-7.333,0-11,0
				c-33.949-4.359-68.892,2.045-88-15c-2.831-16.502,10.365-22.295,24-19c0.428,2.807-3.728-2.507-4,1
				c-12.623-0.623-19.484,4.516-18,18c15.594,12.495,38.354,8.193,63,12c1.711,2.288,7.633,0.367,11,1
				c16.043-0.377,31.818-0.484,43,4c-5.778-5.057-16.709-6.343-27-8c-9.865-1.589-23.077,0.41-27-8c6.703-3.964,17.882-3.451,28-4
				c8.333,0,16.667,0,25,0c4.608-0.059,8.871-0.462,12-2c0.729-2.103-10.802-0.501-15-1c-3,0-6,0-9,0
				C100.319,153.335,86.681,153.335,80,155z"/>
			<path fill-rule="evenodd" clip-rule="evenodd" fill="#404982" d="M246,125c1.172-0.161,0.844-1.823,1-3
				c1.172,0.161,0.844,1.823,1,3c-2.96,2.706,0.96,12.294-2,15C246,135,246,130,246,125z"/>
			<path fill-rule="evenodd" clip-rule="evenodd" fill="#BABCCA" d="M115,153c5.68,0.653,13.981-1.315,18,1
				C127.319,153.347,119.018,155.315,115,153z"/>
		</g>
	</g>
</g>
<g id="Layer_2_xA0_Image_1_" opacity="0.702">
	<ellipse fill="#091E68" cx="202.75" cy="133.75" rx="44.25" ry="44.75"/>
</g>
<g id="Logo">
	<text transform="matrix(1 0 0 1 168 143)" fill="#FFFFFF" font-family="'Verdana'" font-size="30">Logo</text>
</g>
</svg>
